<svg width="18" height="18" viewBox="0 0 18 18" fill="none" xmlns="http://www.w3.org/2000/svg">
<g clip-path="url(#clip0)">
<path d="M9.00002 18C13.9706 18 18 13.9706 18 9.00002C18 4.02945 13.9706 0 9.00002 0C4.02945 0 0 4.02945 0 9.00002C0 13.9706 4.02945 18 9.00002 18Z" fill="#FFC10E"/>
<path d="M9.96387 13.0036C10.8782 14.7095 12.3545 15.6986 13.2616 15.2126C14.1687 14.7261 14.1629 12.9488 13.2487 11.2428L9.96387 13.0036Z" fill="#CA2027"/>
<path d="M6.26503 7.309C7.04567 7.309 7.67851 6.67617 7.67851 5.89553C7.67851 5.11489 7.04567 4.48206 6.26503 4.48206C5.4844 4.48206 4.85156 5.11489 4.85156 5.89553C4.85156 6.67617 5.4844 7.309 6.26503 7.309Z" fill="#333333"/>
<path d="M11.6098 7.309C12.3904 7.309 13.0232 6.67617 13.0232 5.89553C13.0232 5.11489 12.3904 4.48206 11.6098 4.48206C10.8291 4.48206 10.1963 5.11489 10.1963 5.89553C10.1963 6.67617 10.8291 7.309 11.6098 7.309Z" fill="#333333"/>
<path d="M13.0372 10.8264C10.7857 13.1177 7.16315 13.0994 4.93041 10.7923C4.61138 10.4626 4.10943 10.9655 4.42805 11.2947C6.92597 13.876 11.0229 13.8901 13.5396 11.3288C13.861 11.0019 13.3589 10.4992 13.0372 10.8264Z" fill="#333333"/>
</g>
<defs>
<clipPath id="clip0">
<rect width="18" height="18" fill="white"/>
</clipPath>
</defs>
</svg>
